<svg width="22" height="16" viewBox="0 0 22 16" fill="none" xmlns="http://www.w3.org/2000/svg">
<g clip-path="url(#clip0_1_366)">
<path d="M10.6544 6.91333C10.5877 6.90666 10.5077 6.90666 10.4344 6.91333C8.84732 6.86 7.58704 5.56 7.58704 3.96C7.58704 2.32666 8.90734 1 10.5477 1C12.1814 1 13.5084 2.32666 13.5084 3.96C13.5017 5.56 12.2415 6.86 10.6544 6.91333Z" stroke="black" stroke-width="1.2" stroke-linecap="round" stroke-linejoin="round"/>
<path d="M7.21028 9.82833C5.59657 10.9083 5.59657 12.6683 7.21028 13.7417C9.04403 14.9683 12.0514 14.9683 13.8852 13.7417C15.4988 12.6617 15.4988 10.9017 13.8852 9.82833C12.058 8.60833 9.0507 8.60833 7.21028 9.82833Z" stroke="black" stroke-width="1.2" stroke-linecap="round" stroke-linejoin="round"/>
</g>
<defs>
<clipPath id="clip0_1_366">
<rect width="21.0954" height="15.6617" fill="white"/>
</clipPath>
</defs>
</svg>
